<?xml version="1.0" encoding="UTF-8"?>
<!-- Generated by graphviz version 2.40.1 (20161225.0304)
 -->
<!-- Title: %0 Pages: 1 -->
<svg width="1020pt" height="300pt" version="1.1" viewBox="0 0 1019.8 300.27" xmlns="http://www.w3.org/2000/svg">
 <g class="graph" transform="translate(4 435.39)">
  <title>%0</title>
  <path d="m302.79-169.61h418.32c6.0022 0 12.004-3.3969 12.004-6.7937v-202.68c0-3.3969-6.0022-6.7937-12.004-6.7937h-418.32c-6.0022 0-12.004 3.3968-12.004 6.7937v202.68c0 3.3969 6.0022 6.7937 12.004 6.7937" fill="#fff" stroke="#333" stroke-width=".75256"/>
  <g class="cluster" transform="translate(2.7868 -94.752)">
   <title>cluster0</title>
   <path d="m20-98.387h64c6 0 12-6 12-12v-166c0-6-6-12-12-12h-64c-6 0-12 6-12 12v166c0 6 6 12 12 12" fill="#ebebeb" stroke="#333"/>
   <text x="52" y="-273.5871" fill="#666666" font-family="sans-serif" font-size="12px" text-anchor="middle">User Agent</text>
  </g>
  <g class="cluster" transform="translate(1.8579 39.588)">
   <title>cluster1</title>
   <text x="505.91599" y="-408.5871" fill="#666666" font-family="sans-serif" font-size="12px" text-anchor="middle">Proxy</text>
  </g>
  <g class="cluster" transform="translate(2.7868 -94.752)">
   <title>cluster2</title>
   <path d="m304.83-98.387h64c6 0 12-6 12-12v-144c0-6-6-12-12-12h-64c-6 0-12 6-12 12v144c0 6 6 12 12 12" fill="#ebebeb" stroke="#333" stroke-dasharray="5, 2"/>
  </g>
  <g class="cluster" transform="translate(2.7868 -94.752)">
   <title>cluster3</title>
   <path d="m643-98.387h64c6 0 12-6 12-12v-144c0-6-6-12-12-12h-64c-6 0-12 6-12 12v144c0 6 6 12 12 12" fill="#ebebeb" stroke="#333" stroke-dasharray="5, 2"/>
  </g>
  <g class="cluster" transform="translate(2.7868 -94.752)">
   <title>cluster4</title>
   <path d="m927.83-98.387h64c6 0 12-6 12-12v-166c0-6-6-12-12-12h-64c-6 0-12 6-12 12v166c0 6 6 12 12 12" fill="#ebebeb" stroke="#333"/>
   <text x="959.83197" y="-273.5871" fill="#666666" font-family="sans-serif" font-size="12px" text-anchor="middle">Origin</text>
  </g>
  <!-- useragent_http -->
  <g class="node" transform="translate(2.7868 -94.752)">
   <title>useragent_http</title>
   <path d="m76-200.39h-48c-6 0-12 6-12 12v12c0 6 6 12 12 12h48c6 0 12-6 12-12v-12c0-6-6-12-12-12" fill="#23a0a8" stroke="transparent"/>
   <text x="52" y="-178.78709" fill="#ffffff" font-family="sans-serif" font-size="12px" text-anchor="middle">HTTP</text>
  </g>
  <!-- proxy_useragent_http -->
  <g class="node" transform="translate(2.7868 -94.752)">
   <title>proxy_useragent_http</title>
   <path d="m360.83-200.39h-48c-6 0-12 6-12 12v12c0 6 6 12 12 12h48c6 0 12-6 12-12v-12c0-6-6-12-12-12" fill="#23a0a8" stroke="#23a0a8"/>
   <text x="336.83279" y="-178.78709" fill="#ffffff" font-family="sans-serif" font-size="12px" text-anchor="middle">HTTP</text>
  </g>
  <!-- useragent_http&#45;&gt;proxy_useragent_http -->
  <g class="edge" transform="translate(2.7868 -94.752)">
   <title>useragent_http-&gt;proxy_useragent_http</title>
   <path d="m88.074-182.39h212.53" fill="none" stroke="transparent" stroke-dasharray="1, 5" stroke-width="2"/>
  </g>
  <!-- useragent_http&#45;&gt;proxy_useragent_http -->
  <g class="edge" transform="translate(2.7868 -94.752)">
   <title>useragent_http-&gt;proxy_useragent_http</title>
   <path d="m98.124-172.08c9.812 1.7853 20.147 3.3636 29.876 4.2896 55.232 5.2571 69.557 4.768 124.83 0 15.78-1.3611 33.043-4.135 47.793-6.9029" fill="none" stroke="#23a0a8" stroke-width="2"/>
   <polygon points="88.136 -173.99 98.616 -175.55 97.297 -168.67" fill="#23a0a8" stroke="#23a0a8" stroke-width="2"/>
   <text x="190.4164" y="-170.78709" fill="#666666" font-family="sans-serif" font-size="8px" text-anchor="middle">draft-ietf-httpbis-proxy-status</text>
  </g>
  <!-- proxy_useragent_tls -->
  <g class="node" transform="translate(2.7868 -94.752)">
   <title>proxy_useragent_tls</title>
   <path d="m360.83-258.39h-48c-6 0-12 6-12 12v12c0 6 6 12 12 12h48c6 0 12-6 12-12v-12c0-6-6-12-12-12" fill="#1db56a" stroke="#1db56a"/>
   <text x="336.83279" y="-236.78709" fill="#ffffff" font-family="sans-serif" font-size="12px" text-anchor="middle">TLS</text>
  </g>
  <!-- useragent_http&#45;&gt;proxy_useragent_tls -->
  <g class="edge" transform="translate(2.7868 -94.752)">
   <title>useragent_http-&gt;proxy_useragent_tls</title>
   <path d="m98.116-197.84c1.9815-0.545 3.949-1.064 5.8839-1.5481 68.685-17.183 150.52-29.825 196.6-36.244" fill="none" stroke="#1db56a" stroke-width="2"/>
   <polygon points="88.176 -194.94 96.795 -201.1 98.756 -194.38" fill="#1db56a" stroke="#1db56a" stroke-width="2"/>
   <text x="190.4164" y="-231.78709" fill="#666666" font-family="sans-serif" font-size="8px" text-anchor="middle">draft-ietf-httpbis-proxy-status</text>
  </g>
  <!-- proxy_useragent_tcpudp -->
  <g class="node" transform="translate(2.7868 -94.752)">
   <title>proxy_useragent_tcpudp</title>
   <path d="m357.67-142.39h-41.673c-6 0-12 6-12 12v12c0 6 6 12 12 12h41.673c6 0 12-6 12-12v-12c0-6-6-12-12-12" fill="#155cc2" stroke="#155cc2"/>
   <text x="336.83279" y="-120.7871" fill="#ffffff" font-family="sans-serif" font-size="12px" text-anchor="middle">TCP/UDP</text>
  </g>
  <!-- useragent_http&#45;&gt;proxy_useragent_tcpudp -->
  <g class="edge" transform="translate(2.7868 -94.752)">
   <title>useragent_http-&gt;proxy_useragent_tcpudp</title>
   <path d="m97.572-160.36c9.8515 4.0558 20.342 7.8612 30.428 10.578 60.834 16.387 134.5 22.222 176.09 24.286" fill="none" stroke="#1d5bb5" stroke-width="2"/>
   <polygon points="88.357 -164.3 98.928 -163.59 96.178 -157.15" fill="#1d5bb5" stroke="#1d5bb5" stroke-width="2"/>
   <text x="190.4164" y="-152.78709" fill="#666666" font-family="sans-serif" font-size="8px" text-anchor="middle">draft-ietf-httpbis-proxy-status</text>
  </g>
  <!-- useragent_http&#45;&gt;proxy_useragent_tcpudp -->
  <g class="edge" transform="translate(2.7868 -94.752)">
   <title>useragent_http-&gt;proxy_useragent_tcpudp</title>
   <path d="m90.621-157.92c1.8586 1.4836 3.663 2.9995 5.3791 4.5374 16.596 14.872 11.832 29.122 32 38.6 57.155 26.859 133.09 12.772 175.87 0.9911" fill="none" stroke="#1d5bb5" stroke-width="2"/>
   <polygon points="82.23 -164.19 92.337 -161.01 88.15 -155.4" fill="#1d5bb5" stroke="#1d5bb5" stroke-width="2"/>
   <text x="196.375" y="-118.70381" fill="#666666" font-family="sans-serif" font-size="8px" text-anchor="middle">draft-ohanlon-transport-info-header</text>
  </g>
  <!-- useragent_tls -->
  <g class="node" transform="translate(2.7868 -94.752)">
   <title>useragent_tls</title>
   <path d="m76-258.39h-48c-6 0-12 6-12 12v12c0 6 6 12 12 12h48c6 0 12-6 12-12v-12c0-6-6-12-12-12" fill="#1db56a" stroke="transparent"/>
   <text x="52" y="-236.78709" fill="#ffffff" font-family="sans-serif" font-size="12px" text-anchor="middle">TLS</text>
  </g>
  <!-- useragent_tls&#45;&gt;proxy_useragent_tls -->
  <g class="edge" transform="translate(2.7868 -94.752)">
   <title>useragent_tls-&gt;proxy_useragent_tls</title>
   <path d="m63.996-258.4c9.3045-12.284 23.392-27.613 40.004-34.988 69.858-31.014 95.415-5.4441 171.83-7 24.208-0.4929 42.319 23.966 52.282 41.803" fill="none" stroke="transparent" stroke-dasharray="1, 5" stroke-width="2"/>
  </g>
  <!-- useragent_tcpudp -->
  <g class="node" transform="translate(2.7868 -94.752)">
   <title>useragent_tcpudp</title>
   <path d="m76-142.39h-48c-6 0-12 6-12 12v12c0 6 6 12 12 12h48c6 0 12-6 12-12v-12c0-6-6-12-12-12" fill="#155cc2" stroke="transparent"/>
   <text x="52" y="-120.7871" fill="#ffffff" font-family="sans-serif" font-size="12px" text-anchor="middle">TCP/UDP</text>
  </g>
  <!-- useragent_tcpudp&#45;&gt;proxy_useragent_tcpudp -->
  <g class="edge" transform="translate(2.7868 -94.752)">
   <title>useragent_tcpudp-&gt;proxy_useragent_tcpudp</title>
   <path d="m57.528-106.03c9.3373 27.014 31.169 75.876 70.472 90.644 51.936 19.514 73.575 21.232 124.83 0 39.951-16.548 65.4-64.185 76.882-90.676" fill="none" stroke="transparent" stroke-dasharray="1, 5" stroke-width="2"/>
  </g>
  <!-- proxy_useragent_http&#45;&gt;useragent_tls -->
  <g class="edge" transform="translate(2.7868 -94.752)">
   <title>proxy_useragent_http-&gt;useragent_tls</title>
   <path d="m300.99-200.55c-5.5842-3.3424-11.155-6.9989-16.156-10.839-16.205-12.441-13.186-25.037-32-33-49.696-21.034-112.69-15.178-154.75-7.2549" fill="none" stroke="#23a0a8" stroke-width="2"/>
   <polygon points="88.123 -249.65 97.244 -255.04 98.615 -248.18" fill="#23a0a8" stroke="#23a0a8" stroke-width="2"/>
   <text x="190.4164" y="-260.78711" fill="#666666" font-family="sans-serif" font-size="8px" text-anchor="middle">draft-ietf-httpbis-http2-secondary-certs</text>
  </g>
  <!-- proxy_origin_http -->
  <g class="node" transform="translate(2.7868 -94.752)">
   <title>proxy_origin_http</title>
   <path d="m699-200.39h-48c-6 0-12 6-12 12v12c0 6 6 12 12 12h48c6 0 12-6 12-12v-12c0-6-6-12-12-12" fill="#23a0a8" stroke="#23a0a8"/>
   <text x="674.99921" y="-178.78709" fill="#ffffff" font-family="sans-serif" font-size="12px" text-anchor="middle">HTTP</text>
  </g>
  <!-- proxy_useragent_http&#45;&gt;proxy_origin_http -->
  <g class="edge" transform="translate(2.7868 -94.752)">
   <title>proxy_useragent_http-&gt;proxy_origin_http</title>
   <path d="m372.99-182.39h28.34 209.17 28.34" fill="none" stroke="transparent" stroke-dasharray="1, 5" stroke-width="2"/>
  </g>
  <!-- proxy_useragent_http&#45;&gt;proxy_origin_http -->
  <g class="edge" transform="translate(2.7868 -94.752)">
   <title>proxy_useragent_http-&gt;proxy_origin_http</title>
   <path d="m382.92-187.99c1.9966-0.1533 3.9746-0.288 5.9139-0.3995 103.9-5.9745 130.26-5.9745 234.17 0 5.1714 0.2974 10.618 0.7598 15.961 1.299" fill="none" stroke="#23a0a8" stroke-width="2"/>
   <polygon points="372.87 -187.09 382.52 -191.47 383.14 -184.49" fill="#23a0a8" stroke="#23a0a8" stroke-width="2"/>
   <text x="505.91599" y="-195.78709" fill="#666666" font-family="sans-serif" font-size="8px" text-anchor="middle">draft-ietf-httpbis-proxy-status</text>
  </g>
  <!-- proxy_origin_tls -->
  <g class="node" transform="translate(2.7868 -94.752)">
   <title>proxy_origin_tls</title>
   <path d="m699-258.39h-48c-6 0-12 6-12 12v12c0 6 6 12 12 12h48c6 0 12-6 12-12v-12c0-6-6-12-12-12" fill="#1db56a" stroke="#1db56a"/>
   <text x="674.99921" y="-236.78709" fill="#ffffff" font-family="sans-serif" font-size="12px" text-anchor="middle">TLS</text>
  </g>
  <!-- proxy_useragent_http&#45;&gt;proxy_origin_tls -->
  <g class="edge" transform="translate(2.7868 -94.752)">
   <title>proxy_useragent_http-&gt;proxy_origin_tls</title>
   <path d="m374.25-206.68c2.244-1.5714 4.4538-3.1497 6.5844-4.7115 14.78-10.833 15.195-18.693 32-26 74.928-32.58 173.67-20.947 226-11.084" fill="none" stroke="#1db56a" stroke-width="2"/>
   <polygon points="365.52 -200.7 371.79 -209.24 375.75 -203.46" fill="#1db56a" stroke="#1db56a" stroke-width="2"/>
   <text x="505.91599" y="-260.78711" fill="#666666" font-family="sans-serif" font-size="8px" text-anchor="middle">draft-ietf-httpbis-proxy-status</text>
  </g>
  <!-- proxy_origin_tcpudp -->
  <g class="node" transform="translate(2.7868 -94.752)">
   <title>proxy_origin_tcpudp</title>
   <path d="m699-142.39h-48c-6 0-12 6-12 12v12c0 6 6 12 12 12h48c6 0 12-6 12-12v-12c0-6-6-12-12-12" fill="#155cc2" stroke="#155cc2"/>
   <text x="674.99921" y="-120.7871" fill="#ffffff" font-family="sans-serif" font-size="12px" text-anchor="middle">TCP/UDP</text>
  </g>
  <!-- proxy_useragent_http&#45;&gt;proxy_origin_tcpudp -->
  <g class="edge" transform="translate(2.7868 -94.752)">
   <title>proxy_useragent_http-&gt;proxy_origin_tcpudp</title>
   <path d="m377.91-157.01c1.0502 1.171 2.0416 2.381 2.9605 3.6296 7.9587 10.813-1.8388 19.92 8.0983 28.997 69.049 63.069 191.79 33.998 252.94 13.745" fill="none" stroke="#1d5bb5" stroke-width="2.0121"/>
   <polygon points="370.36 -164.18 380.02 -159.84 375.21 -154.76" fill="#1d5bb5" stroke="#1d5bb5" stroke-width="2"/>
   <text x="505.91599" y="-97.620522" fill="#666666" font-family="sans-serif" font-size="8px" text-anchor="middle">draft-ietf-httpbis-proxy-status</text>
  </g>
  <!-- proxy_useragent_http&#45;&gt;proxy_origin_tcpudp -->
  <g class="edge" transform="translate(2.7868 -94.752)">
   <title>proxy_useragent_http-&gt;proxy_origin_tcpudp</title>
   <path d="m383.03-174.46c68.083 11.677 193.96 33.266 255.78 43.87" fill="none" stroke="#1d5bb5" stroke-width="2"/>
   <polygon points="373.02 -176.18 383.47 -177.94 382.29 -171.04" fill="#1d5bb5" stroke="#1d5bb5" stroke-width="2"/>
   <text x="505.91599" y="-165.78709" fill="#666666" font-family="sans-serif" font-size="8px" text-anchor="middle">draft-ohanlon-transport-info-header</text>
  </g>
  <!-- proxy_useragent_tls&#45;&gt;proxy_origin_http -->
  <g class="edge" transform="translate(2.7868 -94.752)">
   <title>proxy_useragent_tls-&gt;proxy_origin_http</title>
   <path d="m382.96-235.06c45.841 5.5747 118.06 15.119 180.04 26.674 25.51 4.7563 53.994 11.387 75.852 16.761" fill="none" stroke="#23a0a8" stroke-width="2"/>
   <polygon points="373.03 -236.26 383.38 -238.54 382.54 -231.59" fill="#23a0a8" stroke="#23a0a8" stroke-width="2"/>
   <text x="505.91599" y="-229.78709" fill="#666666" font-family="sans-serif" font-size="8px" text-anchor="middle">draft-ietf-httpbis-client-cert-field</text>
  </g>
  <!-- proxy_useragent_tls&#45;&gt;proxy_origin_tls -->
  <g class="edge" transform="translate(2.7868 -94.752)">
   <title>proxy_useragent_tls-&gt;proxy_origin_tls</title>
   <path d="m340.5-258.42c8.6955-40.263 32.027-133.97 60.837-133.97h209.17c28.81 0 52.142 93.704 60.837 133.97" fill="none" stroke="transparent" stroke-dasharray="1, 5" stroke-width="2"/>
  </g>
  <!-- proxy_useragent_tcpudp&#45;&gt;proxy_origin_tcpudp -->
  <g class="edge" transform="translate(2.7868 -94.752)">
   <title>proxy_useragent_tcpudp-&gt;proxy_origin_tcpudp</title>
   <path d="m343.48-106.1c9.2799 21.914 28.37 55.708 57.854 55.708h209.17c29.483 0 48.574-33.794 57.854-55.708" fill="none" stroke="transparent" stroke-dasharray="1, 5" stroke-width="2"/>
  </g>
  <!-- proxy_origin_http&#45;&gt;proxy_useragent_tls -->
  <!-- origin_http -->
  <g class="node" transform="translate(2.7868 -94.752)">
   <title>origin_http</title>
   <path d="m983.83-200.39h-48c-6 0-12 6-12 12v12c0 6 6 12 12 12h48c6 0 12-6 12-12v-12c0-6-6-12-12-12" fill="#23a0a8" stroke="transparent"/>
   <text x="959.83197" y="-178.78709" fill="#ffffff" font-family="sans-serif" font-size="12px" text-anchor="middle">HTTP</text>
  </g>
  <!-- proxy_origin_http&#45;&gt;origin_http -->
  <g class="edge" transform="translate(2.7868 -94.752)">
   <title>proxy_origin_http-&gt;origin_http</title>
   <path d="m711.07-182.39h212.53" fill="none" stroke="transparent" stroke-dasharray="1, 5" stroke-width="2"/>
  </g>
  <!-- origin_tcpudp -->
  <g class="node" transform="translate(2.7868 -94.752)">
   <title>origin_tcpudp</title>
   <path d="m983.83-142.39h-48c-6 0-12 6-12 12v12c0 6 6 12 12 12h48c6 0 12-6 12-12v-12c0-6-6-12-12-12" fill="#155cc2" stroke="transparent"/>
   <text x="959.83197" y="-120.7871" fill="#ffffff" font-family="sans-serif" font-size="12px" text-anchor="middle">TCP/UDP</text>
  </g>
  <!-- proxy_origin_http&#45;&gt;origin_tcpudp -->
  <g class="edge" transform="translate(2.7868 -94.752)">
   <title>proxy_origin_http-&gt;origin_tcpudp</title>
   <path d="m721.16-172.99c56.477 11.5 150.92 30.731 202.44 41.223" fill="none" stroke="#1d5bb5" stroke-width="2"/>
   <polygon points="711.07 -175.04 721.57 -176.48 720.17 -169.62" fill="#1d5bb5" stroke="#1d5bb5" stroke-width="2"/>
   <text x="821.41559" y="-167.78709" fill="#666666" font-family="sans-serif" font-size="8px" text-anchor="middle">draft-ohanlon-transport-info-header</text>
  </g>
  <!-- proxy_origin_tls&#45;&gt;origin_http -->
  <g class="edge" transform="matrix(1.0208 0 0 1.0939 -11.913 -72.373)">
   <title>proxy_origin_tls-&gt;origin_http</title>
   <path d="m721.17-234.23c47.271 6.7655 122.68 18.833 186.67 34.841 5.1599 1.2908 10.55 2.8304 15.824 4.4481" fill="none" stroke="#23a0a8" stroke-width="2"/>
   <polygon points="721.62 -237.7 720.64 -230.77 711.23 -235.63" fill="#23a0a8" stroke="#23a0a8" stroke-width="2"/>
   <text x="821.41559" y="-231.78709" fill="#666666" font-family="sans-serif" font-size="8px" text-anchor="middle">draft-ietf-httpbis-http2-secondary-certs</text>
  </g>
  <!-- origin_tls -->
  <g class="node" transform="translate(2.7868 -94.752)">
   <title>origin_tls</title>
   <path d="m983.83-258.39h-48c-6 0-12 6-12 12v12c0 6 6 12 12 12h48c6 0 12-6 12-12v-12c0-6-6-12-12-12" fill="#1db56a" stroke="transparent"/>
   <text x="959.83197" y="-236.78709" fill="#ffffff" font-family="sans-serif" font-size="12px" text-anchor="middle">TLS</text>
  </g>
  <!-- proxy_origin_tls&#45;&gt;origin_tls -->
  <g class="edge" transform="translate(2.7868 -94.752)">
   <title>proxy_origin_tls-&gt;origin_tls</title>
   <path d="m711.31-248.84c7.7725-1.4739 15.967-2.7781 23.684-3.5422 76.452-7.5703 96.349-4.243 172.83 3 5.1079 0.4837 10.469 1.1865 15.729 1.9893" fill="none" stroke="transparent" stroke-dasharray="1, 5" stroke-width="2"/>
  </g>
  <!-- proxy_origin_tcpudp&#45;&gt;origin_tcpudp -->
  <g class="edge" transform="translate(2.7868 -94.752)">
   <title>proxy_origin_tcpudp-&gt;origin_tcpudp</title>
   <path d="m711.14-115.43c14.741 3.2226 32.015 6.4528 47.856 8.0397 55.205 5.5302 69.687 6.0923 124.83 0 13.17-1.455 27.394-4.2873 39.935-7.2291" fill="none" stroke="transparent" stroke-dasharray="1, 5" stroke-width="2"/>
  </g>
 </g>
</svg>
